<?xml version="1.0" encoding="UTF-8"?>
<!DOCTYPE svg PUBLIC "-//W3C//DTD SVG 1.1//EN" "http://www.w3.org/Graphics/SVG/1.1/DTD/svg11.dtd">
<svg xmlns="http://www.w3.org/2000/svg" version="1.1" width="800px" height="800px" style="shape-rendering:geometricPrecision; text-rendering:geometricPrecision; image-rendering:optimizeQuality; fill-rule:evenodd; clip-rule:evenodd" xmlns:xlink="http://www.w3.org/1999/xlink">
<g><path style="opacity:0.933" fill="#1a1919" d="M 495.5,26.5 C 512.961,25.1614 529.961,27.328 546.5,33C 548.478,33.4807 549.811,34.6473 550.5,36.5C 537.716,63.4383 516.716,80.2716 487.5,87C 463.741,91.4318 441.907,86.9318 422,73.5C 423.826,91.4338 425.326,109.434 426.5,127.5C 426.434,132.46 425.767,137.293 424.5,142C 520.832,148.74 602.999,185.907 671,253.5C 752.68,343.894 773.68,446.894 734,562.5C 700.68,639.821 646.18,696.987 570.5,734C 488.892,772.29 403.892,782.29 315.5,764C 226.289,744.677 154.455,698.844 100,626.5C 44.5486,546.114 31.2153,459.114 60,365.5C 82.2738,304.236 119.44,254.07 171.5,215C 233.784,170.179 303.451,145.679 380.5,141.5C 382.319,121.722 381.486,102.055 378,82.5C 375.667,72.5 373.333,62.5 371,52.5C 369.181,45.9784 371.681,42.4784 378.5,42C 388.579,39.8626 398.579,40.196 408.5,43C 411.102,43.8834 413.269,45.3834 415,47.5C 417.313,54.7504 419.313,62.0838 421,69.5C 440.082,45.262 464.915,30.9287 495.5,26.5 Z"/></g>
<g><path style="opacity:1" fill="#67e360" d="M 492.5,39.5 C 500.174,39.3336 507.841,39.5003 515.5,40C 520.337,40.6365 525.004,41.8032 529.5,43.5C 515.384,64.479 495.551,75.1456 470,75.5C 459.748,75.3963 450.248,72.7297 441.5,67.5C 455.491,52.6717 472.491,43.3383 492.5,39.5 Z"/></g>
<g><path style="opacity:1" fill="#956e46" d="M 413.5,134.5 C 406.833,134.5 400.167,134.5 393.5,134.5C 393.828,123.654 393.494,112.987 392.5,102.5C 391.252,86.5046 388.252,70.838 383.5,55.5C 388.844,55.334 394.177,55.5006 399.5,56C 402.008,56.115 404.008,57.115 405.5,59C 410.838,83.8793 413.505,109.046 413.5,134.5 Z"/></g>
<g><path style="opacity:1" fill="#443729" d="M 392.5,102.5 C 393.494,112.987 393.828,123.654 393.5,134.5C 400.167,134.5 406.833,134.5 413.5,134.5C 406.687,135.491 399.687,135.825 392.5,135.5C 392.5,124.5 392.5,113.5 392.5,102.5 Z"/></g>
<g><path style="opacity:1" fill="#fe8623" d="M 378.5,156.5 C 484,159.024 572.834,198.358 645,274.5C 683.876,318.263 707.71,369.263 716.5,427.5C 716.444,432.731 717.111,437.731 718.5,442.5C 723.609,539.892 690.276,621.226 618.5,686.5C 601.647,700.1 583.313,711.433 563.5,720.5C 492.103,748.802 418.437,756.636 342.5,744C 247.689,726.076 171.855,678.576 115,601.5C 74.233,541.336 57.733,475.003 65.5,402.5C 80.2327,337.969 112.566,284.136 162.5,241C 216.011,195.924 277.678,168.757 347.5,159.5C 352.731,159.556 357.731,158.889 362.5,157.5C 367.797,156.725 373.13,156.392 378.5,156.5 Z"/></g>
<g><path style="opacity:1" fill="#fbf9f8" d="M 378.5,156.5 C 480.05,151.626 569.05,182.459 645.5,249C 734.442,334.937 759.609,436.77 721,554.5C 699.533,608.469 665.367,652.469 618.5,686.5C 690.276,621.226 723.609,539.892 718.5,442.5C 718.556,437.269 717.889,432.269 716.5,427.5C 707.71,369.263 683.876,318.263 645,274.5C 572.834,198.358 484,159.024 378.5,156.5 Z"/></g>
<g><path style="opacity:1" fill="#ba6520" d="M 362.5,157.5 C 357.731,158.889 352.731,159.556 347.5,159.5C 352.269,158.111 357.269,157.444 362.5,157.5 Z"/></g>
<g><path style="opacity:1" fill="#fffcfa" d="M 418.5,399.5 C 418.444,404.731 419.111,409.731 420.5,414.5C 420.5,414.833 420.5,415.167 420.5,415.5C 420.444,420.731 421.111,425.731 422.5,430.5C 427.239,460.319 430.406,490.319 432,520.5C 431.5,521 431,521.5 430.5,522C 426.167,522.667 421.833,522.667 417.5,522C 417,521.5 416.5,521 416,520.5C 414.887,509.805 413.553,499.138 412,488.5C 411.5,488 411,487.5 410.5,487C 402.812,486.169 395.145,486.335 387.5,487.5C 386.589,491.788 385.922,496.121 385.5,500.5C 384.111,505.269 383.444,510.269 383.5,515.5C 383.414,517.677 382.747,519.677 381.5,521.5C 377.205,522.661 372.871,522.828 368.5,522C 366.986,519.413 366.32,516.58 366.5,513.5C 370.547,477.954 374.881,442.454 379.5,407C 377.891,402.295 377.391,397.461 378,392.5C 390.758,391.345 403.591,391.178 416.5,392C 418.113,394.228 418.78,396.728 418.5,399.5 Z"/></g>
<g><path style="opacity:1" fill="#fffcfb" d="M 309.5,396.5 C 314.731,396.556 319.731,395.889 324.5,394.5C 332.818,393.593 341.151,393.427 349.5,394C 350.211,395.255 351.044,396.421 352,397.5C 352.667,420.5 352.667,443.5 352,466.5C 351.484,469.034 350.317,471.2 348.5,473C 344.848,473.499 341.182,473.665 337.5,473.5C 337.34,475.199 337.506,476.866 338,478.5C 343.939,490.044 349.606,501.711 355,513.5C 355.769,516.099 355.602,518.599 354.5,521C 348.566,521.377 342.732,520.877 337,519.5C 329.931,503.695 322.098,488.362 313.5,473.5C 312.817,487.866 312.151,502.2 311.5,516.5C 306.198,517.663 300.864,517.829 295.5,517C 294.299,516.097 293.465,514.931 293,513.5C 292.667,478.167 292.333,442.833 292,407.5C 290.436,404.538 290.269,401.538 291.5,398.5C 297.358,396.767 303.358,396.1 309.5,396.5 Z"/></g>
<g><path style="opacity:1" fill="#fffcfa" d="M 445.5,393.5 C 451.842,393.334 458.175,393.5 464.5,394C 465.333,394.833 466.167,395.667 467,396.5C 474.749,419.914 482.582,443.248 490.5,466.5C 491.333,443.841 491.833,421.174 492,398.5C 492.956,397.106 494.289,396.439 496,396.5C 499.481,397.123 502.981,397.623 506.5,398C 507,398.5 507.5,399 508,399.5C 508.667,437.833 508.667,476.167 508,514.5C 507.5,515 507,515.5 506.5,516C 500.636,517.507 494.803,517.674 489,516.5C 481.669,494.511 474.335,472.511 467,450.5C 466.586,450.043 466.086,449.709 465.5,449.5C 464.667,472.159 464.167,494.826 464,517.5C 463.626,518.416 463.126,519.25 462.5,520C 457.833,520.667 453.167,520.667 448.5,520C 448,519.5 447.5,519 447,518.5C 446.667,479.5 446.333,440.5 446,401.5C 444.304,398.881 444.137,396.214 445.5,393.5 Z"/></g>
<g><path style="opacity:1" fill="#ffd9ba" d="M 324.5,394.5 C 319.731,395.889 314.731,396.556 309.5,396.5C 314.269,395.111 319.269,394.444 324.5,394.5 Z"/></g>
<g><path style="opacity:1" fill="#fffcfb" d="M 273.5,399.5 C 275.199,399.34 276.866,399.506 278.5,400C 279.081,400.893 279.415,401.893 279.5,403C 272.732,423.969 265.566,444.803 258,465.5C 257.667,480.5 257.333,495.5 257,510.5C 256.275,511.059 255.442,511.392 254.5,511.5C 249.854,510.559 245.187,509.726 240.5,509C 239.874,508.25 239.374,507.416 239,506.5C 238.667,492.833 238.333,479.167 238,465.5C 231.391,448.339 224.391,431.339 217,414.5C 216.333,413.167 216.333,411.833 217,410.5C 222.556,407.993 228.389,407.159 234.5,408C 239.2,419.104 243.7,430.27 248,441.5C 251.384,432.681 254.384,423.681 257,414.5C 257.108,410.823 257.108,407.157 257,403.5C 262.507,401.784 268.007,400.45 273.5,399.5 Z"/></g>
<g><path style="opacity:1" fill="#fffbf8" d="M 527.5,401.5 C 540.58,402.68 553.58,404.513 566.5,407C 572.584,407.705 578.417,409.205 584,411.5C 586.026,415.903 586.86,420.57 586.5,425.5C 586.333,428.833 586.167,432.167 586,435.5C 585.5,436 585,436.5 584.5,437C 579.47,437.414 574.47,437.081 569.5,436C 568.167,432 566.833,428 565.5,424C 558.506,423.034 551.506,422.201 544.5,421.5C 544.5,445.167 544.5,468.833 544.5,492.5C 550.68,492.017 556.846,491.35 563,490.5C 564.658,490.325 565.991,489.658 567,488.5C 568.977,477.767 567.31,467.767 562,458.5C 561.349,456.765 561.515,455.098 562.5,453.5C 569.811,452.335 577.144,452.169 584.5,453C 585,453.5 585.5,454 586,454.5C 586.667,469.167 586.667,483.833 586,498.5C 585.208,500.587 584.041,502.421 582.5,504C 564.653,507.975 546.653,510.642 528.5,512C 526.962,510.068 525.795,507.901 525,505.5C 524.333,472.5 524.333,439.5 525,406.5C 525.847,404.807 526.68,403.14 527.5,401.5 Z"/></g>
<g><path style="opacity:1" fill="#ffd8b8" d="M 418.5,399.5 C 419.889,404.269 420.556,409.269 420.5,414.5C 419.111,409.731 418.444,404.731 418.5,399.5 Z"/></g>
<g><path style="opacity:1" fill="#fffbf9" d="M 191.5,414.5 C 194.518,414.335 197.518,414.502 200.5,415C 201.701,415.903 202.535,417.069 203,418.5C 203.667,433.833 203.667,449.167 203,464.5C 200.938,469.968 196.938,471.968 191,470.5C 181.817,469.96 172.651,469.294 163.5,468.5C 163.666,475.508 163.5,482.508 163,489.5C 156.882,490.685 151.049,489.685 145.5,486.5C 144.949,467.021 144.116,447.688 143,428.5C 159.071,423.276 175.237,418.61 191.5,414.5 Z"/></g>
<g><path style="opacity:1" fill="#ff8a2d" d="M 397.5,413.5 C 400.547,412.855 402.713,413.855 404,416.5C 406.325,432.43 407.825,448.43 408.5,464.5C 402.575,464.808 396.741,464.475 391,463.5C 391.675,447.428 393.342,431.428 396,415.5C 396.717,414.956 397.217,414.289 397.5,413.5 Z"/></g>
<g><path style="opacity:1" fill="#fffcf9" d="M 601.5,414.5 C 619.382,418.22 637.048,422.72 654.5,428C 655.61,430.737 655.777,433.571 655,436.5C 654.275,437.059 653.442,437.392 652.5,437.5C 642.884,435.509 633.218,433.842 623.5,432.5C 623.5,437.833 623.5,443.167 623.5,448.5C 633.176,449.149 642.843,449.982 652.5,451C 653.833,454 653.833,457 652.5,460C 643.14,460.317 633.807,460.984 624.5,462C 623.522,468.41 623.189,474.91 623.5,481.5C 633.719,480.214 643.886,478.547 654,476.5C 655.107,476.585 656.107,476.919 657,477.5C 657.978,480.669 657.478,483.503 655.5,486C 639.624,491.178 623.457,495.344 607,498.5C 605.893,498.415 604.893,498.081 604,497.5C 603.667,472.167 603.333,446.833 603,421.5C 601.798,419.323 601.298,416.989 601.5,414.5 Z"/></g>
<g><path style="opacity:1" fill="#ff8624" d="M 332.5,451.5 C 325.745,451.793 319.078,451.46 312.5,450.5C 312.333,439.495 312.5,428.495 313,417.5C 318.262,416.671 323.596,416.004 329,415.5C 330.436,415.559 331.769,415.892 333,416.5C 333.811,428.243 333.644,439.909 332.5,451.5 Z"/></g>
<g><path style="opacity:1" fill="#ffd5b3" d="M 420.5,415.5 C 421.889,420.269 422.556,425.269 422.5,430.5C 421.111,425.731 420.444,420.731 420.5,415.5 Z"/></g>
<g><path style="opacity:1" fill="#ff8827" d="M 174.5,431.5 C 177.5,431.5 180.5,431.5 183.5,431.5C 183.5,439.833 183.5,448.167 183.5,456.5C 176.833,456.5 170.167,456.5 163.5,456.5C 163.334,449.159 163.5,441.826 164,434.5C 167.557,433.335 171.057,432.335 174.5,431.5 Z"/></g>
<g><path style="opacity:1" fill="#f25a49" d="M 65.5,402.5 C 57.733,475.003 74.233,541.336 115,601.5C 171.855,678.576 247.689,726.076 342.5,744C 418.437,756.636 492.103,748.802 563.5,720.5C 503.705,749.419 440.372,761.919 373.5,758C 369.415,757.767 365.415,757.267 361.5,756.5C 356.731,755.111 351.731,754.444 346.5,754.5C 263.747,743.042 193.58,707.375 136,647.5C 77.9365,582.972 53.2699,507.305 62,420.5C 62.7621,414.284 63.9287,408.284 65.5,402.5 Z"/></g>
<g><path style="opacity:1" fill="#ffa65e" d="M 716.5,427.5 C 717.889,432.269 718.556,437.269 718.5,442.5C 717.111,437.731 716.444,432.731 716.5,427.5 Z"/></g>
<g><path style="opacity:1" fill="#ffdabd" d="M 312.5,450.5 C 319.078,451.46 325.745,451.793 332.5,451.5C 329.351,452.165 326.018,452.498 322.5,452.5C 318.761,452.486 315.428,451.82 312.5,450.5 Z"/></g>
<g><path style="opacity:1" fill="#ffac69" d="M 385.5,500.5 C 385.556,505.731 384.889,510.731 383.5,515.5C 383.444,510.269 384.111,505.269 385.5,500.5 Z"/></g>
<g><path style="opacity:1" fill="#fb7d27" d="M 526.5,574.5 C 539.705,574.914 543.872,581.247 539,593.5C 530.829,599.599 524.162,598.266 519,589.5C 517.808,582.551 520.308,577.551 526.5,574.5 Z"/></g>
<g><path style="opacity:1" fill="#fb7d27" d="M 598.5,574.5 C 614.592,573.421 621.426,580.754 619,596.5C 613.866,606.386 606.032,609.219 595.5,605C 587.185,598.714 585.352,590.881 590,581.5C 592.441,578.546 595.275,576.213 598.5,574.5 Z"/></g>
<g><path style="opacity:1" fill="#fb7d27" d="M 549.5,636.5 C 559.856,635.25 563.69,639.584 561,649.5C 556.037,654.712 551.037,654.712 546,649.5C 544.006,644.315 545.173,639.981 549.5,636.5 Z"/></g>
<g><path style="opacity:1" fill="#fb7d27" d="M 513.5,669.5 C 522.322,668.82 526.155,672.82 525,681.5C 523.471,684.934 520.804,686.6 517,686.5C 509.875,685.602 507.208,681.602 509,674.5C 510.193,672.503 511.693,670.836 513.5,669.5 Z"/></g>
<g><path style="opacity:1" fill="#fb7d27" d="M 390.5,673.5 C 397.808,673.639 400.974,677.305 400,684.5C 396.914,689.752 392.747,690.752 387.5,687.5C 383.11,681.723 384.11,677.056 390.5,673.5 Z"/></g>
<g><path style="opacity:1" fill="#fb7d27" d="M 449.5,683.5 C 458.207,683.356 461.373,687.356 459,695.5C 453.979,700.917 449.312,700.584 445,694.5C 443.776,689.626 445.276,685.959 449.5,683.5 Z"/></g>
<g><path style="opacity:1" fill="#ba4a3c" d="M 346.5,754.5 C 351.731,754.444 356.731,755.111 361.5,756.5C 356.269,756.556 351.269,755.889 346.5,754.5 Z"/></g>
</svg>
